# xmcd CD database file
#
# Track frame offsets:
#	150
#	20260
#	42041
#	54042
#	70343
#	93269
#	115914
#	141109
#	162301
#	204599
#	224085
#	250967
#	277367
#	291212
#	314185
#	337779
#
# Disc length: 4773 seconds
#
# Revision: 3
# Processed by: cddbd v1.5.2PL0 Copyright (c) Steve Scherf et al.
# Submitted via: CDex 1.70beta2
#
DISCID=f712a310
DTITLE=Rasmus Faber - Where We Belong
DYEAR=2008
DGENRE=Jazz
TTITLE0=Are You Ready
TTITLE1=Give It to Me
TTITLE2=Alright - Interlude
TTITLE3=Everything Is Alright
TTITLE4=Na Minha Terra
TTITLE5=Any Way
TTITLE6=Everytime We
TTITLE7=Always
TTITLE8=I Don’t Mind
TTITLE9=Never Figure Out
TTITLE10=No More Falling
TTITLE11=Cidade Oposta
TTITLE12=Traveller Toccata
TTITLE13=Yes
TTITLE14=Where We Belong
TTITLE15=Giant Leap
EXTD=YEAR: 2008
EXTT0=
EXTT1=
EXTT2=
EXTT3=
EXTT4=
EXTT5=
EXTT6=
EXTT7=
EXTT8=
EXTT9=
EXTT10=
EXTT11=
EXTT12=
EXTT13=
EXTT14=
EXTT15=
PLAYORDER=
